<svg id="Group_73" data-name="Group 73" xmlns="http://www.w3.org/2000/svg" width="25" height="28.444" viewBox="0 0 25 28.444">
  <g id="Group_2" data-name="Group 2" transform="translate(3.333 11.667)">
    <g id="Group_1" data-name="Group 1" transform="translate(0)">
      <path id="Path_4" data-name="Path 4" d="M93.5,210a2.5,2.5,0,0,0-2.5,2.5v6.778a2.5,2.5,0,0,0,5,0V212.5A2.5,2.5,0,0,0,93.5,210Z" transform="translate(-91 -210)" fill="#fff"/>
    </g>
  </g>
  <g id="Group_4" data-name="Group 4" transform="translate(0 13.465)">
    <g id="Group_3" data-name="Group 3">
      <path id="Path_5" data-name="Path 5" d="M32.667,243.068a4.135,4.135,0,0,1,.071-.7A2.5,2.5,0,0,0,31,244.735v3.444a2.5,2.5,0,0,0,1.738,2.369,4.135,4.135,0,0,1-.071-.7Z" transform="translate(-31 -242.366)" fill="#fff"/>
    </g>
  </g>
  <g id="Group_6" data-name="Group 6" transform="translate(10 11.667)">
    <g id="Group_5" data-name="Group 5">
      <path id="Path_6" data-name="Path 6" d="M220.167,210a2.5,2.5,0,0,0-2.5,2.5v6.778a2.5,2.5,0,0,0,2.5,2.5,2.466,2.466,0,0,0,.716-.117,2.5,2.5,0,0,1-2.383,1.784h-2.654a2.5,2.5,0,1,0,0,1.667H218.5a4.172,4.172,0,0,0,4.167-4.167V212.5A2.5,2.5,0,0,0,220.167,210Z" transform="translate(-211 -210)" fill="#fff"/>
    </g>
  </g>
  <g id="Group_8" data-name="Group 8" transform="translate(23.262 13.465)">
    <g id="Group_7" data-name="Group 7">
      <path id="Path_7" data-name="Path 7" d="M449.722,242.366a4.132,4.132,0,0,1,.071.7v6.778a4.132,4.132,0,0,1-.071.7,2.5,2.5,0,0,0,1.738-2.369v-3.444A2.5,2.5,0,0,0,449.722,242.366Z" transform="translate(-449.722 -242.366)" fill="#fff"/>
    </g>
  </g>
  <g id="Group_10" data-name="Group 10" transform="translate(0)">
    <g id="Group_9" data-name="Group 9">
      <path id="Path_8" data-name="Path 8" d="M43.5,0A12.514,12.514,0,0,0,31,12.5v.021a4.126,4.126,0,0,1,1.7-.774,10.821,10.821,0,0,1,21.59,0,4.128,4.128,0,0,1,1.7.774V12.5A12.514,12.514,0,0,0,43.5,0Z" transform="translate(-31)" fill="#fff"/>
    </g>
  </g>
</svg>
