<?xml version="1.0" encoding="utf-8"?>
<!-- Generator: Adobe Illustrator 25.4.1, SVG Export Plug-In . SVG Version: 6.00 Build 0)  -->
<svg version="1.1" id="Layer_1" xmlns="http://www.w3.org/2000/svg" xmlns:xlink="http://www.w3.org/1999/xlink" x="0px" y="0px"
	 viewBox="0 0 100.3 35" style="enable-background:new 0 0 100.3 35;" xml:space="preserve">
<style type="text/css">
	.st0{opacity:0.5;}
	.st1{fill:#FFFFFF;}
</style>
<g class="st0">
	<g>
		<g>
			<path class="st1" d="M22.9,30.7H10.6C4.7,30.7,0,25.9,0,20.1v-7.7l20.7,0c2.5,0,4.7,1.9,4.8,4.3c0.1,1.2-0.3,2.3-0.9,3.1
				c1.7,0.7,3,2.4,3,4.4V26C27.6,28.6,25.5,30.7,22.9,30.7z M2.2,14.6v5.5c0,4.6,3.7,8.3,8.3,8.3h12.4c1.4,0,2.5-1.1,2.5-2.5v-1.8
				c0-1.4-1.1-2.5-2.5-2.5h-7.6c-0.6,0-1.1-0.4-1.2-0.9c-0.1-0.7,0.4-1.3,1.1-1.3l5.5,0c1.3,0,2.4-0.9,2.6-2.2
				c0.1-1.5-1-2.7-2.4-2.7H2.2z"/>
		</g>
	</g>
	<g>
		<g>
			<path class="st1" d="M12.6,11.1L9.5,5.5C9.2,5,8.5,4.8,8,5.1C7.5,5.4,7.3,6,7.5,6.6l2.5,4.6H12.6z"/>
		</g>
	</g>
	<circle class="st1" cx="8.5" cy="6" r="2.5"/>
	<circle class="st1" cx="19.9" cy="2.5" r="2.5"/>
	<g>
		<g>
			<path class="st1" d="M20.4,1.5c-0.5-0.3-1.2-0.1-1.5,0.4l-5,9.2h2.5L20.9,3C21.2,2.5,21,1.8,20.4,1.5z"/>
		</g>
	</g>
	<path class="st1" d="M11.8,35h-0.4c-0.7,0-1.3-0.6-1.3-1.3v-1.4h3.1v1.4C13.1,34.4,12.5,35,11.8,35z"/>
	<path class="st1" d="M21.1,35h-0.4c-0.7,0-1.3-0.6-1.3-1.3v-1.4h3.1v1.4C22.4,34.4,21.8,35,21.1,35z"/>
	<g>
		<path class="st1" d="M40.3,18.2c0.5,0.3,1,0.8,1.3,1.4c0.3,0.6,0.5,1.3,0.5,2.2c0,0.8-0.2,1.5-0.5,2.2c-0.3,0.6-0.7,1.1-1.3,1.4
			c-0.5,0.3-1.2,0.5-1.9,0.5c-0.8,0-1.4-0.2-2-0.6s-0.9-0.9-1.1-1.5v2h-1.3V15.1h1.3v4.8c0.2-0.6,0.6-1.1,1.1-1.5
			c0.5-0.4,1.2-0.6,2-0.6C39.1,17.7,39.8,17.9,40.3,18.2z M36.7,19.3c-0.4,0.2-0.7,0.6-1,1c-0.2,0.4-0.3,1-0.3,1.5
			c0,0.6,0.1,1.1,0.3,1.5c0.2,0.4,0.6,0.8,1,1c0.4,0.2,0.9,0.4,1.4,0.4c0.8,0,1.5-0.3,2-0.8c0.5-0.5,0.7-1.2,0.7-2.1
			c0-0.9-0.2-1.6-0.7-2.1c-0.5-0.5-1.1-0.8-2-0.8C37.5,18.9,37.1,19,36.7,19.3z"/>
		<path class="st1" d="M50.5,22.1h-6.3c0,0.9,0.3,1.6,0.8,2c0.5,0.5,1.1,0.7,1.8,0.7c0.6,0,1.2-0.2,1.6-0.5c0.4-0.3,0.7-0.8,0.8-1.3
			h1.4c-0.1,0.5-0.3,1-0.6,1.5c-0.3,0.4-0.8,0.8-1.3,1c-0.5,0.2-1.1,0.4-1.8,0.4c-0.8,0-1.4-0.2-2-0.5c-0.6-0.3-1-0.8-1.4-1.4
			c-0.3-0.6-0.5-1.3-0.5-2.2c0-0.8,0.2-1.6,0.5-2.2c0.3-0.6,0.8-1.1,1.4-1.4c0.6-0.3,1.3-0.5,2-0.5c0.8,0,1.4,0.2,2,0.5
			c0.6,0.3,1,0.8,1.3,1.3c0.3,0.5,0.5,1.2,0.5,1.8C50.5,21.6,50.5,21.9,50.5,22.1z M48.9,20c-0.2-0.4-0.5-0.7-0.9-0.9
			c-0.4-0.2-0.8-0.3-1.3-0.3c-0.7,0-1.3,0.2-1.8,0.7c-0.5,0.4-0.8,1.1-0.8,2h5.1C49.2,20.9,49.1,20.4,48.9,20z"/>
		<path class="st1" d="M52.2,17.8l2.6,6.2l2.4-6.2h1.5l-4.7,11.7h-1.5l1.6-3.9l-3.3-7.8H52.2z"/>
		<path class="st1" d="M64.5,18.3c0.5,0.4,0.9,0.9,1.1,1.5v-2h1.3v7.9h-1.3v-2c-0.2,0.6-0.6,1.2-1.1,1.5c-0.5,0.4-1.2,0.6-2,0.6
			c-0.7,0-1.3-0.2-1.9-0.5c-0.5-0.3-1-0.8-1.3-1.4c-0.3-0.6-0.5-1.3-0.5-2.2c0-0.8,0.2-1.6,0.5-2.2c0.3-0.6,0.7-1.1,1.3-1.4
			c0.5-0.3,1.2-0.5,1.9-0.5C63.3,17.7,63.9,17.9,64.5,18.3z M60.9,19.7c-0.5,0.5-0.7,1.2-0.7,2.1c0,0.9,0.2,1.6,0.7,2.1
			c0.5,0.5,1.1,0.8,1.9,0.8c0.5,0,1-0.1,1.4-0.4c0.4-0.2,0.7-0.6,1-1s0.3-0.9,0.3-1.5c0-0.6-0.1-1.1-0.3-1.5s-0.6-0.8-1-1
			c-0.4-0.2-0.9-0.4-1.4-0.4C62.1,18.9,61.4,19.2,60.9,19.7z"/>
		<path class="st1" d="M69.2,24.7h4.2v1.1h-5.7v-1.1l4-5.8h-3.9v-1.1h5.4v1.1L69.2,24.7z"/>
		<path class="st1" d="M74.3,14.7c0.2-0.2,0.5-0.3,0.9-0.3c0.4,0,0.7,0.1,0.9,0.3c0.2,0.2,0.3,0.5,0.3,0.8c0,0.3-0.1,0.6-0.3,0.8
			c-0.2,0.2-0.5,0.3-0.9,0.3c-0.4,0-0.7-0.1-0.9-0.3c-0.2-0.2-0.3-0.5-0.3-0.8C73.9,15.1,74,14.9,74.3,14.7z M76.2,17.8v8h-2v-8
			H76.2z"/>
		<path class="st1" d="M84.1,18.2c0.5,0.3,1,0.8,1.3,1.4c0.3,0.6,0.5,1.4,0.5,2.2s-0.2,1.6-0.5,2.2c-0.3,0.6-0.7,1.1-1.3,1.4
			c-0.5,0.3-1.1,0.5-1.8,0.5c-0.7,0-1.2-0.2-1.7-0.5c-0.5-0.3-0.8-0.8-1-1.3v5.5h-2V17.8h2v1.7c0.2-0.5,0.5-1,1-1.3
			c0.5-0.3,1.1-0.5,1.7-0.5C82.9,17.7,83.5,17.8,84.1,18.2z M80.1,20.1c-0.4,0.4-0.6,1-0.6,1.7c0,0.7,0.2,1.3,0.6,1.7
			s0.9,0.6,1.5,0.6c0.6,0,1.1-0.2,1.5-0.6c0.4-0.4,0.6-1,0.6-1.7c0-0.7-0.2-1.3-0.6-1.7c-0.4-0.4-0.9-0.6-1.5-0.6
			C81,19.4,80.5,19.7,80.1,20.1z"/>
		<path class="st1" d="M90.9,24v1.7h-1.1c-0.9,0-1.6-0.2-2.1-0.7c-0.5-0.4-0.7-1.2-0.7-2.2v-3.5H86v-1.7h1.1v-2h2v2h1.8v1.7h-1.8V23
			c0,0.4,0.1,0.7,0.2,0.8c0.2,0.2,0.4,0.2,0.8,0.2H90.9z"/>
		<path class="st1" d="M96.2,23.7l2-6h2.2l-3,8h-2.5l-3-8h2.2L96.2,23.7z"/>
	</g>
</g>
</svg>
