<?xml version="1.0" encoding="utf-8"?>
<!-- Generator: Adobe Illustrator 25.4.1, SVG Export Plug-In . SVG Version: 6.00 Build 0)  -->
<svg version="1.1" id="Layer_1" xmlns="http://www.w3.org/2000/svg" xmlns:xlink="http://www.w3.org/1999/xlink" x="0px" y="0px"
	 viewBox="0 0 182 64" style="enable-background:new 0 0 182 64;" xml:space="preserve">
<style type="text/css">
	.st0{fill:#FFAA00;}
	.st1{fill:#FFFFFF;}
</style>
<g>
	<g>
		<g>
			<path class="st0" d="M42,55.7H19.7c-10.5,0-19-8.5-19-19V22.9l37.3,0c4.5,0,8.4,3.4,8.7,7.8c0.1,2.1-0.5,4.1-1.6,5.6
				c3.1,1.2,5.3,4.3,5.3,7.8v3.2C50.4,51.9,46.6,55.7,42,55.7z M4.7,26.9v9.8c0,8.3,6.7,15,15,15H42c2.4,0,4.4-2,4.4-4.4v-3.2
				c0-2.4-2-4.4-4.4-4.4H28.3c-1,0-1.9-0.7-2.1-1.7c-0.2-1.3,0.8-2.3,2-2.3l9.9,0c2.3,0,4.4-1.7,4.6-4c0.3-2.6-1.8-4.9-4.4-4.9H4.7z
				"/>
		</g>
	</g>
	<g>
		<g>
			<path class="st0" d="M23.4,20.5l-5.6-10.1c-0.5-1-1.7-1.3-2.7-0.8c-1,0.5-1.3,1.7-0.8,2.7l4.5,8.2H23.4z"/>
		</g>
	</g>
	<circle class="st0" cx="16.1" cy="11.4" r="4.5"/>
	<circle class="st0" cx="36.6" cy="5" r="4.5"/>
	<g>
		<g>
			<path class="st0" d="M37.5,3.3c-1-0.5-2.2-0.2-2.7,0.8l-9,16.5h4.6l8-14.6C38.8,5,38.5,3.8,37.5,3.3z"/>
		</g>
	</g>
	<path class="st0" d="M21.5,63.5L21.5,63.5c-1.5,0-2.8-1.3-2.8-2.8v-2.1h5.6v2.1C24.3,62.2,23.1,63.5,21.5,63.5z"/>
	<path class="st0" d="M38.2,63.5L38.2,63.5c-1.5,0-2.8-1.3-2.8-2.8v-2.1H41v2.1C41,62.2,39.8,63.5,38.2,63.5z"/>
	<g>
		<path class="st0" d="M73.3,33.3c1,0.6,1.8,1.4,2.3,2.5c0.6,1.1,0.8,2.4,0.8,3.9c0,1.5-0.3,2.8-0.8,3.9c-0.6,1.1-1.3,1.9-2.3,2.5
			c-1,0.6-2.1,0.9-3.4,0.9c-1.4,0-2.6-0.4-3.5-1.1s-1.6-1.6-2-2.8v3.6H62V27.6h2.4v8.6c0.4-1.1,1-2.1,2-2.8s2.1-1.1,3.5-1.1
			C71.1,32.4,72.3,32.7,73.3,33.3z M66.7,35.2c-0.7,0.4-1.3,1-1.7,1.8s-0.6,1.7-0.6,2.8s0.2,2,0.6,2.7s1,1.4,1.7,1.8
			c0.7,0.4,1.6,0.6,2.5,0.6c1.5,0,2.6-0.5,3.5-1.4c0.9-0.9,1.3-2.2,1.3-3.8c0-1.6-0.4-2.9-1.3-3.8c-0.9-0.9-2-1.4-3.5-1.4
			C68.3,34.5,67.4,34.7,66.7,35.2z"/>
		<path class="st0" d="M91.5,40.3H80.1c0.1,1.6,0.5,2.9,1.4,3.7c0.9,0.8,1.9,1.2,3.2,1.2c1.1,0,2.1-0.3,2.9-0.9
			c0.8-0.6,1.2-1.4,1.4-2.3h2.5c-0.2,1-0.6,1.9-1.2,2.7C89.8,45.4,89,46,88,46.4c-1,0.4-2,0.6-3.2,0.6c-1.4,0-2.6-0.3-3.6-0.9
			c-1.1-0.6-1.9-1.4-2.5-2.5c-0.6-1.1-0.9-2.4-0.9-3.9c0-1.5,0.3-2.8,0.9-3.9c0.6-1.1,1.4-2,2.5-2.5c1.1-0.6,2.3-0.9,3.6-0.9
			c1.4,0,2.6,0.3,3.6,0.9c1,0.6,1.8,1.4,2.4,2.4c0.5,1,0.8,2.1,0.8,3.3C91.6,39.5,91.6,39.9,91.5,40.3z M88.7,36.5
			c-0.4-0.7-0.9-1.2-1.6-1.6c-0.7-0.3-1.4-0.5-2.3-0.5c-1.3,0-2.4,0.4-3.3,1.2c-0.9,0.8-1.4,2-1.4,3.5h9.1
			C89.3,38.1,89.1,37.2,88.7,36.5z"/>
		<path class="st0" d="M94.7,32.6l4.6,11.2l4.3-11.2h2.6l-8.5,21H95l3-7l-6-14H94.7z"/>
		<path class="st0" d="M116.7,33.5c1,0.7,1.6,1.6,2,2.8v-3.6h2.4v14.3h-2.4v-3.6c-0.4,1.2-1.1,2.1-2,2.8c-1,0.7-2.1,1-3.5,1
			c-1.3,0-2.4-0.3-3.4-0.9c-1-0.6-1.8-1.4-2.3-2.5c-0.6-1.1-0.8-2.4-0.8-3.9c0-1.5,0.3-2.8,0.8-3.9c0.6-1.1,1.3-2,2.3-2.5
			c1-0.6,2.1-0.9,3.4-0.9C114.6,32.4,115.7,32.8,116.7,33.5z M110.3,35.9c-0.9,0.9-1.3,2.2-1.3,3.8c0,1.6,0.4,2.9,1.3,3.8
			c0.9,0.9,2,1.4,3.5,1.4c0.9,0,1.8-0.2,2.5-0.6c0.7-0.4,1.3-1,1.7-1.8s0.6-1.7,0.6-2.7s-0.2-2-0.6-2.8s-1-1.4-1.7-1.8
			c-0.7-0.4-1.6-0.6-2.5-0.6C112.4,34.5,111.2,35,110.3,35.9z"/>
		<path class="st0" d="M125.2,44.9h7.6v2h-10.2V45l7.3-10.4h-7.1v-2h9.8v1.9L125.2,44.9z"/>
		<path class="st1" d="M134.3,26.9c0.4-0.4,1-0.6,1.6-0.6s1.2,0.2,1.6,0.6c0.4,0.4,0.6,0.9,0.6,1.4c0,0.6-0.2,1-0.6,1.4
			c-0.4,0.4-1,0.6-1.6,0.6s-1.2-0.2-1.6-0.6c-0.4-0.4-0.6-0.8-0.6-1.4C133.7,27.8,133.9,27.3,134.3,26.9z M137.8,32.5v14.4h-3.7
			V32.5H137.8z"/>
		<path class="st1" d="M152,33.2c1,0.6,1.7,1.4,2.3,2.6c0.5,1.1,0.8,2.4,0.8,3.9s-0.3,2.8-0.8,3.9s-1.3,2-2.3,2.6
			c-1,0.6-2.1,0.9-3.3,0.9c-1.2,0-2.2-0.3-3.1-0.9c-0.9-0.6-1.5-1.4-1.8-2.3v9.9h-3.7V32.5h3.7v3c0.4-1,1-1.7,1.8-2.3
			c0.9-0.6,1.9-0.9,3.1-0.9C149.9,32.3,151,32.6,152,33.2z M144.8,36.6c-0.7,0.8-1.1,1.8-1.1,3.1c0,1.3,0.4,2.3,1.1,3
			s1.6,1.1,2.7,1.1c1.1,0,2.1-0.4,2.8-1.1c0.7-0.7,1-1.8,1-3.1s-0.3-2.3-1-3.1s-1.6-1.1-2.8-1.1C146.4,35.5,145.5,35.9,144.8,36.6z"
			/>
		<path class="st1" d="M164.3,43.7v3.1h-1.9c-1.6,0-2.8-0.4-3.7-1.2c-0.9-0.8-1.3-2.1-1.3-3.9v-6.2h-2v-3.1h2v-3.6h3.7v3.6h3.2v3.1
			h-3.2v6.3c0,0.7,0.1,1.2,0.4,1.5c0.3,0.3,0.7,0.4,1.4,0.4H164.3z"/>
		<path class="st1" d="M173.7,43.2l3.6-10.7h3.9l-5.3,14.4h-4.5l-5.3-14.4h3.9L173.7,43.2z"/>
	</g>
</g>
</svg>
